<?xml version="1.0" encoding="UTF-8"?>
<svg xmlns="http://www.w3.org/2000/svg" width="104" height="29" fill="none">
  <g clip-path="url(#clip0_1_5243)">
    <path d="m1 29-1-2V1l1-1 1 1v26l-1 2ZM80 26h-9l10-16-1-1V8H69l-2 1 2 2h9L68 27a1 1 0 0 0 1 1h11l1-1-1-1ZM42 8l-1 1v3c-2-2-5-4-8-4-6 0-10 5-10 10 0 6 4 11 10 11 3 0 6-2 8-4v2l1 1 1-1V9l-1-1Zm-9 18c-4 0-8-3-8-8 0-4 4-8 8-8s8 4 8 8c0 5-4 8-8 8ZM103 8l-1 1v3c-2-2-5-4-8-4-6 0-10 5-10 10 0 6 4 11 10 11 3 0 6-2 8-4v2l1 1 1-1V9l-1-1Zm-9 18c-4 0-8-3-8-8 0-4 4-8 8-8s8 4 8 8c0 5-4 8-8 8ZM61 9c-4-2-8 0-11 3V9l-1-1-1 1v18l1 1 1-1v-9c1-6 4-8 8-8 3 1 5 4 5 6v11l1 1 1-1V16c0-3-1-6-4-7Z" fill="#F9A723"></path>
    <path d="M20 15c-1-4-5-7-10-7-3 0-6 1-7 4H2a11 11 0 0 0 0 13h1c1 2 4 4 7 4l5-1c3-2 5-6 5-10v-3ZM10 26c-4 0-8-3-8-8 0-4 4-8 8-8 5 0 8 4 8 8 0 5-3 8-8 8Z" fill="#8D31DD"></path>
  </g>
  <defs>
    <clipPath id="clip0_1_5243">
      <path fill="#fff" d="M0 0h104v29H0z"></path>
    </clipPath>
  </defs>
</svg>
